<svg id="Layer_3" enable-background="new 0 0 64 64" height="512" viewBox="0 0 64 64" width="512" xmlns="http://www.w3.org/2000/svg"><g><g><circle cx="17" cy="32" fill="#f5b953" r="15"/></g><g><circle cx="17" cy="32" fill="#fff" r="11"/></g><g><circle cx="47" cy="32" fill="#3d98f7" r="15"/></g><g><path d="m18 39h-6v-2h6c1.103 0 2-.897 2-2s-.897-2-2-2v-2c2.206 0 4 1.794 4 4s-1.794 4-4 4z"/></g><g><path d="m18 33h-4v-2h4c1.103 0 2-.897 2-2s-.897-2-2-2h-6v-2h6c2.206 0 4 1.794 4 4s-1.794 4-4 4z"/></g><g><path d="m14 23h2v3h-2z"/></g><g><path d="m17 23h2v3h-2z"/></g><g><path d="m14 38h2v3h-2z"/></g><g><path d="m17 38h2v3h-2z"/></g><g><path d="m13 26h2v12h-2z"/></g><g><path d="m17 44v-2c5.514 0 10-4.486 10-10h2c0 6.617-5.383 12-12 12z"/></g><g><path d="m7 32h-2c0-6.617 5.383-12 12-12v2c-5.514 0-10 4.486-10 10z"/></g><g><path d="m17 48c-8.822 0-16-7.178-16-16s7.178-16 16-16 16 7.178 16 16-7.178 16-16 16zm0-30c-7.72 0-14 6.28-14 14s6.28 14 14 14 14-6.28 14-14-6.28-14-14-14z"/></g><g><path d="m47 48c-8.822 0-16-7.178-16-16s7.178-16 16-16 16 7.178 16 16-7.178 16-16 16zm0-30c-7.72 0-14 6.28-14 14s6.28 14 14 14 14-6.28 14-14-6.28-14-14-14z"/></g><g><path d="m47 48c-3.99 0-7-6.879-7-16 0-9.122 3.01-16 7-16s7 6.878 7 16c0 9.121-3.01 16-7 16zm0-30c-2.365 0-5 5.75-5 14s2.635 14 5 14 5-5.75 5-14-2.635-14-5-14z"/></g><g><path d="m47 39c-9.121 0-16-3.01-16-7 0-3.991 6.879-7 16-7s16 3.009 16 7c0 3.99-6.879 7-16 7zm0-12c-8.25 0-14 2.635-14 5s5.75 5 14 5 14-2.635 14-5-5.75-5-14-5z"/></g><g><path d="m45 14h-2c0-6.065-4.935-11-11-11s-11 4.935-11 11h-2c0-7.168 5.832-13 13-13s13 5.832 13 13z"/></g><g><path d="m43.999 15c-.219 0-.439-.072-.624-.219l-5-4 1.25-1.562 4.219 3.375 3.375-4.219 1.562 1.249-4 5c-.198.248-.488.376-.782.376z"/></g><g><path d="m32 63c-7.168 0-13-5.832-13-13h2c0 6.065 4.935 11 11 11s11-4.935 11-11h2c0 7.168-5.832 13-13 13z"/></g><g><path d="m16.781 55.625-1.562-1.25 4-5c.346-.429.975-.502 1.406-.156l5 4-1.25 1.562-4.219-3.376z"/></g></g></svg>